# xmcd CD database file
#
# Track frame offsets:
#	160
#	16007
#	34895
#
# Disc length: 856 seconds
#
# Revision: 2
# Processed by: cddbd v1.5.2PL0 Copyright (c) Steve Scherf et al.
# Submitted via: CDex 1.51
#
DISCID=17035603
DTITLE=Boo-Yaa Tribe - Get Gatted On
DYEAR=1994
DGENRE=Hip-Hop
TTITLE0=Get Gatted On (Album Version)
TTITLE1=Shoot 'Em Down
TTITLE2=Get Gatted On (Club Version)
EXTD=YEAR: 1994
EXTT0=
EXTT1=
EXTT2=
PLAYORDER=
